<mxfile host="app.diagrams.net" agent="Mozilla/5.0 (Windows NT 10.0; Win64; x64) AppleWebKit/537.36 (KHTML, like Gecko) Chrome/136.0.0.0 Safari/537.36" version="27.0.6">
  <diagram name="Page-1" id="b5b7bab2-c9e2-2cf4-8b2a-24fd1a2a6d21">
    <mxGraphModel dx="4214" dy="1395" grid="1" gridSize="10" guides="1" tooltips="1" connect="1" arrows="1" fold="1" page="1" pageScale="1" pageWidth="827" pageHeight="1169" background="none" math="0" shadow="0">
      <root>
        <mxCell id="0" />
        <mxCell id="1" parent="0" />
        <mxCell id="LnD3zdVyB0GyHzaoFV1q-109" style="edgeStyle=orthogonalEdgeStyle;rounded=0;orthogonalLoop=1;jettySize=auto;html=1;exitX=0.75;exitY=1;exitDx=0;exitDy=0;entryX=0.5;entryY=0;entryDx=0;entryDy=0;" edge="1" parent="1" source="LnD3zdVyB0GyHzaoFV1q-1" target="LnD3zdVyB0GyHzaoFV1q-11">
          <mxGeometry relative="1" as="geometry" />
        </mxCell>
        <mxCell id="LnD3zdVyB0GyHzaoFV1q-1" value="Client" style="swimlane;fontStyle=0;align=center;verticalAlign=top;childLayout=stackLayout;horizontal=1;startSize=26;horizontalStack=0;resizeParent=1;resizeLast=0;collapsible=1;marginBottom=0;rounded=0;shadow=0;strokeWidth=1;" vertex="1" parent="1">
          <mxGeometry x="-715" y="770" width="160" height="170" as="geometry">
            <mxRectangle x="230" y="140" width="160" height="26" as="alternateBounds" />
          </mxGeometry>
        </mxCell>
        <mxCell id="LnD3zdVyB0GyHzaoFV1q-2" value="-id: int&#xa;-firstName: String&#xa;-lastName: String&#xa;-email: String&#xa;-phone: String&#xa;-address: String" style="text;align=left;verticalAlign=top;spacingLeft=4;spacingRight=4;overflow=hidden;rotatable=0;points=[[0,0.5],[1,0.5]];portConstraint=eastwest;" vertex="1" parent="LnD3zdVyB0GyHzaoFV1q-1">
          <mxGeometry y="26" width="160" height="94" as="geometry" />
        </mxCell>
        <mxCell id="LnD3zdVyB0GyHzaoFV1q-31" value="" style="line;strokeWidth=1;fillColor=none;align=left;verticalAlign=middle;spacingTop=-1;spacingLeft=3;spacingRight=3;rotatable=0;labelPosition=right;points=[];portConstraint=eastwest;strokeColor=inherit;" vertex="1" parent="LnD3zdVyB0GyHzaoFV1q-1">
          <mxGeometry y="120" width="160" height="10" as="geometry" />
        </mxCell>
        <mxCell id="LnD3zdVyB0GyHzaoFV1q-33" value="&lt;div style=&quot;&quot;&gt;&lt;span style=&quot;background-color: transparent; color: light-dark(rgb(0, 0, 0), rgb(255, 255, 255));&quot;&gt;+getters/setters()&lt;/span&gt;&lt;/div&gt;" style="text;html=1;align=left;verticalAlign=middle;resizable=0;points=[];autosize=1;strokeColor=none;fillColor=none;" vertex="1" parent="LnD3zdVyB0GyHzaoFV1q-1">
          <mxGeometry y="130" width="160" height="30" as="geometry" />
        </mxCell>
        <mxCell id="LnD3zdVyB0GyHzaoFV1q-3" value="ConnectionFactory" style="swimlane;fontStyle=0;align=center;verticalAlign=top;childLayout=stackLayout;horizontal=1;startSize=26;horizontalStack=0;resizeParent=1;resizeLast=0;collapsible=1;marginBottom=0;rounded=0;shadow=0;strokeWidth=1;" vertex="1" parent="1">
          <mxGeometry x="100" y="310" width="210" height="220" as="geometry">
            <mxRectangle x="130" y="380" width="160" height="26" as="alternateBounds" />
          </mxGeometry>
        </mxCell>
        <mxCell id="LnD3zdVyB0GyHzaoFV1q-4" value="-LOGGER: Logger&#xa;-DRIVER: String&#xa;-DBURL: String&#xa;-USER: String&#xa;-PASS: String&#xa;-singleInstance: ConncetionFactory" style="text;align=left;verticalAlign=top;spacingLeft=4;spacingRight=4;overflow=hidden;rotatable=0;points=[[0,0.5],[1,0.5]];portConstraint=eastwest;" vertex="1" parent="LnD3zdVyB0GyHzaoFV1q-3">
          <mxGeometry y="26" width="210" height="94" as="geometry" />
        </mxCell>
        <mxCell id="LnD3zdVyB0GyHzaoFV1q-5" value="" style="line;html=1;strokeWidth=1;align=left;verticalAlign=middle;spacingTop=-1;spacingLeft=3;spacingRight=3;rotatable=0;labelPosition=right;points=[];portConstraint=eastwest;" vertex="1" parent="LnD3zdVyB0GyHzaoFV1q-3">
          <mxGeometry y="120" width="210" height="8" as="geometry" />
        </mxCell>
        <mxCell id="LnD3zdVyB0GyHzaoFV1q-6" value="+createConnection(): Connection&#xa;+genConnection(): Connection&#xa;+close(connection: Connection): void&#xa;+close(statement: Statement): void&#xa;+close(resultSet: ResultSet): void" style="text;align=left;verticalAlign=top;spacingLeft=4;spacingRight=4;overflow=hidden;rotatable=0;points=[[0,0.5],[1,0.5]];portConstraint=eastwest;fontStyle=0" vertex="1" parent="LnD3zdVyB0GyHzaoFV1q-3">
          <mxGeometry y="128" width="210" height="92" as="geometry" />
        </mxCell>
        <mxCell id="LnD3zdVyB0GyHzaoFV1q-11" value="Orders" style="swimlane;fontStyle=0;align=center;verticalAlign=top;childLayout=stackLayout;horizontal=1;startSize=26;horizontalStack=0;resizeParent=1;resizeLast=0;collapsible=1;marginBottom=0;rounded=0;shadow=0;strokeWidth=1;" vertex="1" parent="1">
          <mxGeometry x="-90" y="1210" width="160" height="168" as="geometry">
            <mxRectangle x="230" y="140" width="160" height="26" as="alternateBounds" />
          </mxGeometry>
        </mxCell>
        <mxCell id="LnD3zdVyB0GyHzaoFV1q-12" value="-id: int&#xa;-clientId: int&#xa;-orderDate: String&#xa;-price: int&#xa;-notes:String&#xa;-shippingAddress: String" style="text;align=left;verticalAlign=top;spacingLeft=4;spacingRight=4;overflow=hidden;rotatable=0;points=[[0,0.5],[1,0.5]];portConstraint=eastwest;" vertex="1" parent="LnD3zdVyB0GyHzaoFV1q-11">
          <mxGeometry y="26" width="160" height="94" as="geometry" />
        </mxCell>
        <mxCell id="LnD3zdVyB0GyHzaoFV1q-36" value="" style="line;strokeWidth=1;fillColor=none;align=left;verticalAlign=middle;spacingTop=-1;spacingLeft=3;spacingRight=3;rotatable=0;labelPosition=right;points=[];portConstraint=eastwest;strokeColor=inherit;" vertex="1" parent="LnD3zdVyB0GyHzaoFV1q-11">
          <mxGeometry y="120" width="160" height="8" as="geometry" />
        </mxCell>
        <mxCell id="LnD3zdVyB0GyHzaoFV1q-35" value="&lt;div style=&quot;&quot;&gt;&lt;span style=&quot;background-color: transparent; color: light-dark(rgb(0, 0, 0), rgb(255, 255, 255));&quot;&gt;+getters/setters()&lt;/span&gt;&lt;/div&gt;" style="text;html=1;align=left;verticalAlign=middle;resizable=0;points=[];autosize=1;strokeColor=none;fillColor=none;" vertex="1" parent="LnD3zdVyB0GyHzaoFV1q-11">
          <mxGeometry y="128" width="160" height="30" as="geometry" />
        </mxCell>
        <mxCell id="LnD3zdVyB0GyHzaoFV1q-13" value="Product" style="swimlane;fontStyle=0;align=center;verticalAlign=top;childLayout=stackLayout;horizontal=1;startSize=26;horizontalStack=0;resizeParent=1;resizeLast=0;collapsible=1;marginBottom=0;rounded=0;shadow=0;strokeWidth=1;" vertex="1" parent="1">
          <mxGeometry x="-250" y="230" width="160" height="171" as="geometry">
            <mxRectangle x="230" y="140" width="160" height="26" as="alternateBounds" />
          </mxGeometry>
        </mxCell>
        <mxCell id="LnD3zdVyB0GyHzaoFV1q-14" value="-id: int&#xa;-name: String&#xa;-description: String&#xa;-price: String&#xa;-stockQuantity: String&#xa;" style="text;align=left;verticalAlign=top;spacingLeft=4;spacingRight=4;overflow=hidden;rotatable=0;points=[[0,0.5],[1,0.5]];portConstraint=eastwest;" vertex="1" parent="LnD3zdVyB0GyHzaoFV1q-13">
          <mxGeometry y="26" width="160" height="94" as="geometry" />
        </mxCell>
        <mxCell id="LnD3zdVyB0GyHzaoFV1q-38" value="" style="line;strokeWidth=1;fillColor=none;align=left;verticalAlign=middle;spacingTop=-1;spacingLeft=3;spacingRight=3;rotatable=0;labelPosition=right;points=[];portConstraint=eastwest;strokeColor=inherit;" vertex="1" parent="LnD3zdVyB0GyHzaoFV1q-13">
          <mxGeometry y="120" width="160" height="8" as="geometry" />
        </mxCell>
        <mxCell id="LnD3zdVyB0GyHzaoFV1q-40" value="&lt;div style=&quot;&quot;&gt;&lt;span style=&quot;background-color: transparent; color: light-dark(rgb(0, 0, 0), rgb(255, 255, 255));&quot;&gt;+getters/setters()&lt;/span&gt;&lt;/div&gt;" style="text;html=1;align=left;verticalAlign=middle;resizable=0;points=[];autosize=1;strokeColor=none;fillColor=none;" vertex="1" parent="LnD3zdVyB0GyHzaoFV1q-13">
          <mxGeometry y="128" width="160" height="30" as="geometry" />
        </mxCell>
        <mxCell id="LnD3zdVyB0GyHzaoFV1q-17" value="ProductDAO" style="swimlane;fontStyle=0;align=center;verticalAlign=top;childLayout=stackLayout;horizontal=1;startSize=26;horizontalStack=0;resizeParent=1;resizeLast=0;collapsible=1;marginBottom=0;rounded=0;shadow=0;strokeWidth=1;" vertex="1" parent="1">
          <mxGeometry x="-330" y="610" width="210" height="70" as="geometry">
            <mxRectangle x="230" y="140" width="160" height="26" as="alternateBounds" />
          </mxGeometry>
        </mxCell>
        <mxCell id="LnD3zdVyB0GyHzaoFV1q-18" value="+getAllProducts(): ArrayList&lt;Product&gt;" style="text;align=left;verticalAlign=top;spacingLeft=4;spacingRight=4;overflow=hidden;rotatable=0;points=[[0,0.5],[1,0.5]];portConstraint=eastwest;" vertex="1" parent="LnD3zdVyB0GyHzaoFV1q-17">
          <mxGeometry y="26" width="210" height="34" as="geometry" />
        </mxCell>
        <mxCell id="LnD3zdVyB0GyHzaoFV1q-19" value="ClientDAO" style="swimlane;fontStyle=0;align=center;verticalAlign=top;childLayout=stackLayout;horizontal=1;startSize=26;horizontalStack=0;resizeParent=1;resizeLast=0;collapsible=1;marginBottom=0;rounded=0;shadow=0;strokeWidth=1;" vertex="1" parent="1">
          <mxGeometry x="-1170" y="750" width="240" height="64" as="geometry">
            <mxRectangle x="230" y="140" width="160" height="26" as="alternateBounds" />
          </mxGeometry>
        </mxCell>
        <mxCell id="LnD3zdVyB0GyHzaoFV1q-20" value="+getAllClients(): ArrayList&lt;Client&gt;" style="text;align=left;verticalAlign=top;spacingLeft=4;spacingRight=4;overflow=hidden;rotatable=0;points=[[0,0.5],[1,0.5]];portConstraint=eastwest;" vertex="1" parent="LnD3zdVyB0GyHzaoFV1q-19">
          <mxGeometry y="26" width="240" height="34" as="geometry" />
        </mxCell>
        <mxCell id="LnD3zdVyB0GyHzaoFV1q-21" value="OrderDAO" style="swimlane;fontStyle=0;align=center;verticalAlign=top;childLayout=stackLayout;horizontal=1;startSize=26;horizontalStack=0;resizeParent=1;resizeLast=0;collapsible=1;marginBottom=0;rounded=0;shadow=0;strokeWidth=1;" vertex="1" parent="1">
          <mxGeometry x="-440" y="975" width="210" height="70" as="geometry">
            <mxRectangle x="230" y="140" width="160" height="26" as="alternateBounds" />
          </mxGeometry>
        </mxCell>
        <mxCell id="LnD3zdVyB0GyHzaoFV1q-23" value="BillDAO" style="swimlane;fontStyle=0;align=center;verticalAlign=top;childLayout=stackLayout;horizontal=1;startSize=26;horizontalStack=0;resizeParent=1;resizeLast=0;collapsible=1;marginBottom=0;rounded=0;shadow=0;strokeWidth=1;" vertex="1" parent="1">
          <mxGeometry x="520" y="1550" width="210" height="70" as="geometry">
            <mxRectangle x="230" y="140" width="160" height="26" as="alternateBounds" />
          </mxGeometry>
        </mxCell>
        <mxCell id="LnD3zdVyB0GyHzaoFV1q-24" value="+insertBill(Bill)&#xa;+findAll(): List&lt;Bill&gt;" style="text;align=left;verticalAlign=top;spacingLeft=4;spacingRight=4;overflow=hidden;rotatable=0;points=[[0,0.5],[1,0.5]];portConstraint=eastwest;" vertex="1" parent="LnD3zdVyB0GyHzaoFV1q-23">
          <mxGeometry y="26" width="210" height="34" as="geometry" />
        </mxCell>
        <mxCell id="LnD3zdVyB0GyHzaoFV1q-25" value="ClientBLL" style="swimlane;fontStyle=0;align=center;verticalAlign=top;childLayout=stackLayout;horizontal=1;startSize=26;horizontalStack=0;resizeParent=1;resizeLast=0;collapsible=1;marginBottom=0;rounded=0;shadow=0;strokeWidth=1;" vertex="1" parent="1">
          <mxGeometry x="-1340" y="920" width="530" height="180" as="geometry">
            <mxRectangle x="550" y="140" width="160" height="26" as="alternateBounds" />
          </mxGeometry>
        </mxCell>
        <mxCell id="LnD3zdVyB0GyHzaoFV1q-26" value="-validators: List&lt;Validator&lt;Client&gt;&gt;&#xa;-clientDAO: ClientDAO" style="text;align=left;verticalAlign=top;spacingLeft=4;spacingRight=4;overflow=hidden;rotatable=0;points=[[0,0.5],[1,0.5]];portConstraint=eastwest;" vertex="1" parent="LnD3zdVyB0GyHzaoFV1q-25">
          <mxGeometry y="26" width="530" height="34" as="geometry" />
        </mxCell>
        <mxCell id="LnD3zdVyB0GyHzaoFV1q-27" value="" style="line;html=1;strokeWidth=1;align=left;verticalAlign=middle;spacingTop=-1;spacingLeft=3;spacingRight=3;rotatable=0;labelPosition=right;points=[];portConstraint=eastwest;" vertex="1" parent="LnD3zdVyB0GyHzaoFV1q-25">
          <mxGeometry y="60" width="530" height="8" as="geometry" />
        </mxCell>
        <mxCell id="LnD3zdVyB0GyHzaoFV1q-28" value="-findById(id: int): Client&#xa;-getAllClients(): ArrayList&lt;Client&gt;&#xa;-insert(client:Client): Client&#xa;-update(client: Client): Client&#xa;-delete(id: int): void&#xa;-populateTable(clients: List&lt;Client&gt;, clientTable: JTable): void" style="text;align=left;verticalAlign=top;spacingLeft=4;spacingRight=4;overflow=hidden;rotatable=0;points=[[0,0.5],[1,0.5]];portConstraint=eastwest;" vertex="1" parent="LnD3zdVyB0GyHzaoFV1q-25">
          <mxGeometry y="68" width="530" height="112" as="geometry" />
        </mxCell>
        <mxCell id="LnD3zdVyB0GyHzaoFV1q-41" value="&lt;&lt;record&gt;&gt;Bill" style="swimlane;fontStyle=0;align=center;verticalAlign=top;childLayout=stackLayout;horizontal=1;startSize=26;horizontalStack=0;resizeParent=1;resizeLast=0;collapsible=1;marginBottom=0;rounded=0;shadow=0;strokeWidth=1;" vertex="1" parent="1">
          <mxGeometry x="520" y="1260" width="160" height="158" as="geometry">
            <mxRectangle x="230" y="140" width="160" height="26" as="alternateBounds" />
          </mxGeometry>
        </mxCell>
        <mxCell id="LnD3zdVyB0GyHzaoFV1q-42" value="+id: int &#xa;+orderId: int &#xa;+clientName: String &#xa;+products: String &#xa;+price: int &#xa;+date: String" style="text;align=left;verticalAlign=top;spacingLeft=4;spacingRight=4;overflow=hidden;rotatable=0;points=[[0,0.5],[1,0.5]];portConstraint=eastwest;" vertex="1" parent="LnD3zdVyB0GyHzaoFV1q-41">
          <mxGeometry y="26" width="160" height="94" as="geometry" />
        </mxCell>
        <mxCell id="LnD3zdVyB0GyHzaoFV1q-43" value="" style="line;strokeWidth=1;fillColor=none;align=left;verticalAlign=middle;spacingTop=-1;spacingLeft=3;spacingRight=3;rotatable=0;labelPosition=right;points=[];portConstraint=eastwest;strokeColor=inherit;" vertex="1" parent="LnD3zdVyB0GyHzaoFV1q-41">
          <mxGeometry y="120" width="160" height="8" as="geometry" />
        </mxCell>
        <mxCell id="LnD3zdVyB0GyHzaoFV1q-44" value="&lt;div style=&quot;&quot;&gt;...&lt;/div&gt;" style="text;html=1;align=left;verticalAlign=middle;resizable=0;points=[];autosize=1;strokeColor=none;fillColor=none;" vertex="1" parent="LnD3zdVyB0GyHzaoFV1q-41">
          <mxGeometry y="128" width="160" height="30" as="geometry" />
        </mxCell>
        <mxCell id="LnD3zdVyB0GyHzaoFV1q-45" value="AbstractDao&lt;T&gt;" style="swimlane;fontStyle=0;align=center;verticalAlign=top;childLayout=stackLayout;horizontal=1;startSize=26;horizontalStack=0;resizeParent=1;resizeLast=0;collapsible=1;marginBottom=0;rounded=0;shadow=0;strokeWidth=1;" vertex="1" parent="1">
          <mxGeometry x="-780" y="350" width="290" height="178" as="geometry">
            <mxRectangle x="230" y="140" width="160" height="26" as="alternateBounds" />
          </mxGeometry>
        </mxCell>
        <mxCell id="LnD3zdVyB0GyHzaoFV1q-46" value="-type: Class&lt;T&gt;&#xa;-LOGGER: logger&#xa;" style="text;align=left;verticalAlign=top;spacingLeft=4;spacingRight=4;overflow=hidden;rotatable=0;points=[[0,0.5],[1,0.5]];portConstraint=eastwest;" vertex="1" parent="LnD3zdVyB0GyHzaoFV1q-45">
          <mxGeometry y="26" width="290" height="34" as="geometry" />
        </mxCell>
        <mxCell id="LnD3zdVyB0GyHzaoFV1q-47" value="" style="line;strokeWidth=1;fillColor=none;align=left;verticalAlign=middle;spacingTop=-1;spacingLeft=3;spacingRight=3;rotatable=0;labelPosition=right;points=[];portConstraint=eastwest;strokeColor=inherit;" vertex="1" parent="LnD3zdVyB0GyHzaoFV1q-45">
          <mxGeometry y="60" width="290" height="8" as="geometry" />
        </mxCell>
        <mxCell id="LnD3zdVyB0GyHzaoFV1q-48" value="&lt;div style=&quot;&quot;&gt;+findById(id:int): T&amp;nbsp;&lt;/div&gt;&lt;div style=&quot;&quot;&gt;+findAll(): List&amp;lt;T&amp;gt;&lt;/div&gt;&lt;div style=&quot;&quot;&gt;+createObjects(resultSet:ResultSet):List&amp;lt;T&amp;gt;&lt;/div&gt;&lt;div style=&quot;&quot;&gt;+insert(t:T): T&amp;nbsp;&lt;/div&gt;&lt;div style=&quot;&quot;&gt;+update(t:T): T&amp;nbsp;&lt;/div&gt;&lt;div style=&quot;&quot;&gt;+delete(int:id): boolean&amp;nbsp;&lt;/div&gt;&lt;div style=&quot;&quot;&gt;+populateTableFromList(table:JTable,list: List&amp;lt;T&amp;gt;)&lt;/div&gt;" style="text;html=1;align=left;verticalAlign=middle;resizable=0;points=[];autosize=1;strokeColor=none;fillColor=none;" vertex="1" parent="LnD3zdVyB0GyHzaoFV1q-45">
          <mxGeometry y="68" width="290" height="110" as="geometry" />
        </mxCell>
        <mxCell id="LnD3zdVyB0GyHzaoFV1q-49" value="ProductBLL" style="swimlane;fontStyle=0;align=center;verticalAlign=top;childLayout=stackLayout;horizontal=1;startSize=26;horizontalStack=0;resizeParent=1;resizeLast=0;collapsible=1;marginBottom=0;rounded=0;shadow=0;strokeWidth=1;" vertex="1" parent="1">
          <mxGeometry x="-175" y="708" width="530" height="180" as="geometry">
            <mxRectangle x="550" y="140" width="160" height="26" as="alternateBounds" />
          </mxGeometry>
        </mxCell>
        <mxCell id="LnD3zdVyB0GyHzaoFV1q-50" value="-validators: List&lt;Validator&lt;Product&gt;&gt;&#xa;-productDAO: ProductDao" style="text;align=left;verticalAlign=top;spacingLeft=4;spacingRight=4;overflow=hidden;rotatable=0;points=[[0,0.5],[1,0.5]];portConstraint=eastwest;" vertex="1" parent="LnD3zdVyB0GyHzaoFV1q-49">
          <mxGeometry y="26" width="530" height="34" as="geometry" />
        </mxCell>
        <mxCell id="LnD3zdVyB0GyHzaoFV1q-51" value="" style="line;html=1;strokeWidth=1;align=left;verticalAlign=middle;spacingTop=-1;spacingLeft=3;spacingRight=3;rotatable=0;labelPosition=right;points=[];portConstraint=eastwest;" vertex="1" parent="LnD3zdVyB0GyHzaoFV1q-49">
          <mxGeometry y="60" width="530" height="8" as="geometry" />
        </mxCell>
        <mxCell id="LnD3zdVyB0GyHzaoFV1q-52" value="-findById(id: int): Product&#xa;-getAllProducts(): ArrayList&lt;Product&gt;&#xa;-insert(product:Product): Product&#xa;-update(product: Product): Product&#xa;-delete(id: int): void&#xa;-populateTable(products: List&lt;Product&gt;, clientTable: JTable): void" style="text;align=left;verticalAlign=top;spacingLeft=4;spacingRight=4;overflow=hidden;rotatable=0;points=[[0,0.5],[1,0.5]];portConstraint=eastwest;" vertex="1" parent="LnD3zdVyB0GyHzaoFV1q-49">
          <mxGeometry y="68" width="530" height="112" as="geometry" />
        </mxCell>
        <mxCell id="LnD3zdVyB0GyHzaoFV1q-53" value="OrderBLL" style="swimlane;fontStyle=0;align=center;verticalAlign=top;childLayout=stackLayout;horizontal=1;startSize=26;horizontalStack=0;resizeParent=1;resizeLast=0;collapsible=1;marginBottom=0;rounded=0;shadow=0;strokeWidth=1;" vertex="1" parent="1">
          <mxGeometry x="-790" y="1320" width="530" height="180" as="geometry">
            <mxRectangle x="550" y="140" width="160" height="26" as="alternateBounds" />
          </mxGeometry>
        </mxCell>
        <mxCell id="LnD3zdVyB0GyHzaoFV1q-54" value="-validators: List&lt;Validator&lt;Orders&gt;&gt;&#xa;-OrderDAO: orderDao" style="text;align=left;verticalAlign=top;spacingLeft=4;spacingRight=4;overflow=hidden;rotatable=0;points=[[0,0.5],[1,0.5]];portConstraint=eastwest;" vertex="1" parent="LnD3zdVyB0GyHzaoFV1q-53">
          <mxGeometry y="26" width="530" height="34" as="geometry" />
        </mxCell>
        <mxCell id="LnD3zdVyB0GyHzaoFV1q-55" value="" style="line;html=1;strokeWidth=1;align=left;verticalAlign=middle;spacingTop=-1;spacingLeft=3;spacingRight=3;rotatable=0;labelPosition=right;points=[];portConstraint=eastwest;" vertex="1" parent="LnD3zdVyB0GyHzaoFV1q-53">
          <mxGeometry y="60" width="530" height="8" as="geometry" />
        </mxCell>
        <mxCell id="LnD3zdVyB0GyHzaoFV1q-56" value="-getOrderById(id: int): Order&#xa;-getAllOrders(): ArrayList&lt;Orders&gt;&#xa;-insertOrder(c:Orders,p:ArrayList&lt;Product&gt;,client:Client): Orders&#xa;-updateOrder(s: Order): Orders&#xa;-deleteOrder(id: int): void&#xa;-populateTable(orders: List&lt;orders&gt;, table: JTable): void" style="text;align=left;verticalAlign=top;spacingLeft=4;spacingRight=4;overflow=hidden;rotatable=0;points=[[0,0.5],[1,0.5]];portConstraint=eastwest;" vertex="1" parent="LnD3zdVyB0GyHzaoFV1q-53">
          <mxGeometry y="68" width="530" height="112" as="geometry" />
        </mxCell>
        <mxCell id="LnD3zdVyB0GyHzaoFV1q-57" value="ControllerView" style="swimlane;fontStyle=0;align=center;verticalAlign=top;childLayout=stackLayout;horizontal=1;startSize=26;horizontalStack=0;resizeParent=1;resizeLast=0;collapsible=1;marginBottom=0;rounded=0;shadow=0;strokeWidth=1;" vertex="1" parent="1">
          <mxGeometry x="350" y="1720" width="160" height="110" as="geometry">
            <mxRectangle x="230" y="140" width="160" height="26" as="alternateBounds" />
          </mxGeometry>
        </mxCell>
        <mxCell id="LnD3zdVyB0GyHzaoFV1q-58" value="-view:View" style="text;align=left;verticalAlign=top;spacingLeft=4;spacingRight=4;overflow=hidden;rotatable=0;points=[[0,0.5],[1,0.5]];portConstraint=eastwest;" vertex="1" parent="LnD3zdVyB0GyHzaoFV1q-57">
          <mxGeometry y="26" width="160" height="34" as="geometry" />
        </mxCell>
        <mxCell id="LnD3zdVyB0GyHzaoFV1q-59" value="" style="line;strokeWidth=1;fillColor=none;align=left;verticalAlign=middle;spacingTop=-1;spacingLeft=3;spacingRight=3;rotatable=0;labelPosition=right;points=[];portConstraint=eastwest;strokeColor=inherit;" vertex="1" parent="LnD3zdVyB0GyHzaoFV1q-57">
          <mxGeometry y="60" width="160" height="8" as="geometry" />
        </mxCell>
        <mxCell id="LnD3zdVyB0GyHzaoFV1q-60" value="&lt;div style=&quot;&quot;&gt;&lt;br&gt;&lt;/div&gt;" style="text;html=1;align=left;verticalAlign=middle;resizable=0;points=[];autosize=1;strokeColor=none;fillColor=none;" vertex="1" parent="LnD3zdVyB0GyHzaoFV1q-57">
          <mxGeometry y="68" width="160" height="30" as="geometry" />
        </mxCell>
        <mxCell id="LnD3zdVyB0GyHzaoFV1q-66" value="View" style="swimlane;fontStyle=0;align=center;verticalAlign=top;childLayout=stackLayout;horizontal=1;startSize=26;horizontalStack=0;resizeParent=1;resizeLast=0;collapsible=1;marginBottom=0;rounded=0;shadow=0;strokeWidth=1;" vertex="1" parent="1">
          <mxGeometry x="165" y="1490" width="190" height="158" as="geometry">
            <mxRectangle x="230" y="140" width="160" height="26" as="alternateBounds" />
          </mxGeometry>
        </mxCell>
        <mxCell id="LnD3zdVyB0GyHzaoFV1q-67" value="-clientsButton: JButton &#xa;-productsButton: JButton&#xa; -ordersButton: JButton" style="text;align=left;verticalAlign=top;spacingLeft=4;spacingRight=4;overflow=hidden;rotatable=0;points=[[0,0.5],[1,0.5]];portConstraint=eastwest;" vertex="1" parent="LnD3zdVyB0GyHzaoFV1q-66">
          <mxGeometry y="26" width="190" height="64" as="geometry" />
        </mxCell>
        <mxCell id="LnD3zdVyB0GyHzaoFV1q-68" value="" style="line;strokeWidth=1;fillColor=none;align=left;verticalAlign=middle;spacingTop=-1;spacingLeft=3;spacingRight=3;rotatable=0;labelPosition=right;points=[];portConstraint=eastwest;strokeColor=inherit;" vertex="1" parent="LnD3zdVyB0GyHzaoFV1q-66">
          <mxGeometry y="90" width="190" height="8" as="geometry" />
        </mxCell>
        <mxCell id="LnD3zdVyB0GyHzaoFV1q-69" value="&lt;div style=&quot;&quot;&gt;+getClientsButton() :JButton&amp;nbsp;&lt;/div&gt;&lt;div style=&quot;&quot;&gt;+getProductsButton(): JButton&amp;nbsp;&lt;/div&gt;&lt;div style=&quot;&quot;&gt;+getOrdersButton() :JButton&lt;/div&gt;" style="text;html=1;align=left;verticalAlign=middle;resizable=0;points=[];autosize=1;strokeColor=none;fillColor=none;" vertex="1" parent="LnD3zdVyB0GyHzaoFV1q-66">
          <mxGeometry y="98" width="190" height="60" as="geometry" />
        </mxCell>
        <mxCell id="LnD3zdVyB0GyHzaoFV1q-70" value="ControllerClient" style="swimlane;fontStyle=0;align=center;verticalAlign=top;childLayout=stackLayout;horizontal=1;startSize=26;horizontalStack=0;resizeParent=1;resizeLast=0;collapsible=1;marginBottom=0;rounded=0;shadow=0;strokeWidth=1;" vertex="1" parent="1">
          <mxGeometry x="-1155" y="1200" width="160" height="138" as="geometry">
            <mxRectangle x="230" y="140" width="160" height="26" as="alternateBounds" />
          </mxGeometry>
        </mxCell>
        <mxCell id="LnD3zdVyB0GyHzaoFV1q-71" value="-viewClient: ViewClient &#xa;-clientBLL: ClientBLL &#xa;-clients: ArrayList&lt;Client&gt;" style="text;align=left;verticalAlign=top;spacingLeft=4;spacingRight=4;overflow=hidden;rotatable=0;points=[[0,0.5],[1,0.5]];portConstraint=eastwest;" vertex="1" parent="LnD3zdVyB0GyHzaoFV1q-70">
          <mxGeometry y="26" width="160" height="74" as="geometry" />
        </mxCell>
        <mxCell id="LnD3zdVyB0GyHzaoFV1q-72" value="" style="line;strokeWidth=1;fillColor=none;align=left;verticalAlign=middle;spacingTop=-1;spacingLeft=3;spacingRight=3;rotatable=0;labelPosition=right;points=[];portConstraint=eastwest;strokeColor=inherit;" vertex="1" parent="LnD3zdVyB0GyHzaoFV1q-70">
          <mxGeometry y="100" width="160" height="8" as="geometry" />
        </mxCell>
        <mxCell id="LnD3zdVyB0GyHzaoFV1q-73" value="&lt;div style=&quot;&quot;&gt;&lt;br&gt;&lt;/div&gt;" style="text;html=1;align=left;verticalAlign=middle;resizable=0;points=[];autosize=1;strokeColor=none;fillColor=none;" vertex="1" parent="LnD3zdVyB0GyHzaoFV1q-70">
          <mxGeometry y="108" width="160" height="30" as="geometry" />
        </mxCell>
        <mxCell id="LnD3zdVyB0GyHzaoFV1q-75" value="ViewClient" style="swimlane;fontStyle=0;align=center;verticalAlign=top;childLayout=stackLayout;horizontal=1;startSize=26;horizontalStack=0;resizeParent=1;resizeLast=0;collapsible=1;marginBottom=0;rounded=0;shadow=0;strokeWidth=1;" vertex="1" parent="1">
          <mxGeometry x="-750" y="1120" width="190" height="168" as="geometry">
            <mxRectangle x="230" y="140" width="160" height="26" as="alternateBounds" />
          </mxGeometry>
        </mxCell>
        <mxCell id="LnD3zdVyB0GyHzaoFV1q-76" value="-clientTable: JTable&#xa; -addButton: JButton&#xa; -deleteButton: JButton &#xa;-saveButton: JButton" style="text;align=left;verticalAlign=top;spacingLeft=4;spacingRight=4;overflow=hidden;rotatable=0;points=[[0,0.5],[1,0.5]];portConstraint=eastwest;" vertex="1" parent="LnD3zdVyB0GyHzaoFV1q-75">
          <mxGeometry y="26" width="190" height="64" as="geometry" />
        </mxCell>
        <mxCell id="LnD3zdVyB0GyHzaoFV1q-77" value="" style="line;strokeWidth=1;fillColor=none;align=left;verticalAlign=middle;spacingTop=-1;spacingLeft=3;spacingRight=3;rotatable=0;labelPosition=right;points=[];portConstraint=eastwest;strokeColor=inherit;" vertex="1" parent="LnD3zdVyB0GyHzaoFV1q-75">
          <mxGeometry y="90" width="190" height="8" as="geometry" />
        </mxCell>
        <mxCell id="LnD3zdVyB0GyHzaoFV1q-78" value="&lt;div style=&quot;&quot;&gt;+getAddButton() :JButton&lt;/div&gt;&lt;div style=&quot;&quot;&gt;&amp;nbsp;+getDeleteButton(): JButton&lt;/div&gt;&lt;div style=&quot;&quot;&gt;&amp;nbsp;+getSaveButton() :JButton&lt;/div&gt;&lt;div style=&quot;&quot;&gt;&amp;nbsp;+getClientTable() :JTable&lt;/div&gt;" style="text;html=1;align=left;verticalAlign=middle;resizable=0;points=[];autosize=1;strokeColor=none;fillColor=none;" vertex="1" parent="LnD3zdVyB0GyHzaoFV1q-75">
          <mxGeometry y="98" width="190" height="70" as="geometry" />
        </mxCell>
        <mxCell id="LnD3zdVyB0GyHzaoFV1q-79" value="ControllerOrder" style="swimlane;fontStyle=0;align=center;verticalAlign=top;childLayout=stackLayout;horizontal=1;startSize=26;horizontalStack=0;resizeParent=1;resizeLast=0;collapsible=1;marginBottom=0;rounded=0;shadow=0;strokeWidth=1;" vertex="1" parent="1">
          <mxGeometry x="-330" y="1135" width="160" height="138" as="geometry">
            <mxRectangle x="230" y="140" width="160" height="26" as="alternateBounds" />
          </mxGeometry>
        </mxCell>
        <mxCell id="LnD3zdVyB0GyHzaoFV1q-80" value="-view: ViewOrder&#xa;-orderBLL: OrderBLL &#xa;-orders: ArrayList&lt;Orders&gt;" style="text;align=left;verticalAlign=top;spacingLeft=4;spacingRight=4;overflow=hidden;rotatable=0;points=[[0,0.5],[1,0.5]];portConstraint=eastwest;" vertex="1" parent="LnD3zdVyB0GyHzaoFV1q-79">
          <mxGeometry y="26" width="160" height="74" as="geometry" />
        </mxCell>
        <mxCell id="LnD3zdVyB0GyHzaoFV1q-81" value="" style="line;strokeWidth=1;fillColor=none;align=left;verticalAlign=middle;spacingTop=-1;spacingLeft=3;spacingRight=3;rotatable=0;labelPosition=right;points=[];portConstraint=eastwest;strokeColor=inherit;" vertex="1" parent="LnD3zdVyB0GyHzaoFV1q-79">
          <mxGeometry y="100" width="160" height="8" as="geometry" />
        </mxCell>
        <mxCell id="LnD3zdVyB0GyHzaoFV1q-82" value="&lt;div style=&quot;&quot;&gt;&lt;br&gt;&lt;/div&gt;" style="text;html=1;align=left;verticalAlign=middle;resizable=0;points=[];autosize=1;strokeColor=none;fillColor=none;" vertex="1" parent="LnD3zdVyB0GyHzaoFV1q-79">
          <mxGeometry y="108" width="160" height="30" as="geometry" />
        </mxCell>
        <mxCell id="LnD3zdVyB0GyHzaoFV1q-83" value="ViewProduct" style="swimlane;fontStyle=0;align=center;verticalAlign=top;childLayout=stackLayout;horizontal=1;startSize=26;horizontalStack=0;resizeParent=1;resizeLast=0;collapsible=1;marginBottom=0;rounded=0;shadow=0;strokeWidth=1;" vertex="1" parent="1">
          <mxGeometry x="340" y="1020" width="190" height="168" as="geometry">
            <mxRectangle x="230" y="140" width="160" height="26" as="alternateBounds" />
          </mxGeometry>
        </mxCell>
        <mxCell id="LnD3zdVyB0GyHzaoFV1q-84" value="-orderTable: JTable &#xa;-addButton: JButton &#xa;-deleteButton: JButton &#xa;-saveButton: JButton" style="text;align=left;verticalAlign=top;spacingLeft=4;spacingRight=4;overflow=hidden;rotatable=0;points=[[0,0.5],[1,0.5]];portConstraint=eastwest;" vertex="1" parent="LnD3zdVyB0GyHzaoFV1q-83">
          <mxGeometry y="26" width="190" height="64" as="geometry" />
        </mxCell>
        <mxCell id="LnD3zdVyB0GyHzaoFV1q-85" value="" style="line;strokeWidth=1;fillColor=none;align=left;verticalAlign=middle;spacingTop=-1;spacingLeft=3;spacingRight=3;rotatable=0;labelPosition=right;points=[];portConstraint=eastwest;strokeColor=inherit;" vertex="1" parent="LnD3zdVyB0GyHzaoFV1q-83">
          <mxGeometry y="90" width="190" height="8" as="geometry" />
        </mxCell>
        <mxCell id="LnD3zdVyB0GyHzaoFV1q-86" value="&lt;div style=&quot;&quot;&gt;+getAddButton() :JButton&lt;/div&gt;&lt;div style=&quot;&quot;&gt;&amp;nbsp;+getDeleteButton(): JButton&lt;/div&gt;&lt;div style=&quot;&quot;&gt;&amp;nbsp;+getSaveButton() :JButton&lt;/div&gt;&lt;div style=&quot;&quot;&gt;&amp;nbsp;+getOrderTable() :JTable&lt;/div&gt;" style="text;html=1;align=left;verticalAlign=middle;resizable=0;points=[];autosize=1;strokeColor=none;fillColor=none;" vertex="1" parent="LnD3zdVyB0GyHzaoFV1q-83">
          <mxGeometry y="98" width="190" height="70" as="geometry" />
        </mxCell>
        <mxCell id="LnD3zdVyB0GyHzaoFV1q-87" value="ControllerProduct" style="swimlane;fontStyle=0;align=center;verticalAlign=top;childLayout=stackLayout;horizontal=1;startSize=26;horizontalStack=0;resizeParent=1;resizeLast=0;collapsible=1;marginBottom=0;rounded=0;shadow=0;strokeWidth=1;" vertex="1" parent="1">
          <mxGeometry x="20" y="962" width="160" height="138" as="geometry">
            <mxRectangle x="230" y="140" width="160" height="26" as="alternateBounds" />
          </mxGeometry>
        </mxCell>
        <mxCell id="LnD3zdVyB0GyHzaoFV1q-88" value="-viewProduct: ViewProduct&#xa; -productBLL: ProductBLL &#xa;-products: ArrayList~Product~" style="text;align=left;verticalAlign=top;spacingLeft=4;spacingRight=4;overflow=hidden;rotatable=0;points=[[0,0.5],[1,0.5]];portConstraint=eastwest;" vertex="1" parent="LnD3zdVyB0GyHzaoFV1q-87">
          <mxGeometry y="26" width="160" height="74" as="geometry" />
        </mxCell>
        <mxCell id="LnD3zdVyB0GyHzaoFV1q-89" value="" style="line;strokeWidth=1;fillColor=none;align=left;verticalAlign=middle;spacingTop=-1;spacingLeft=3;spacingRight=3;rotatable=0;labelPosition=right;points=[];portConstraint=eastwest;strokeColor=inherit;" vertex="1" parent="LnD3zdVyB0GyHzaoFV1q-87">
          <mxGeometry y="100" width="160" height="8" as="geometry" />
        </mxCell>
        <mxCell id="LnD3zdVyB0GyHzaoFV1q-90" value="&lt;div style=&quot;&quot;&gt;&lt;br&gt;&lt;/div&gt;" style="text;html=1;align=left;verticalAlign=middle;resizable=0;points=[];autosize=1;strokeColor=none;fillColor=none;" vertex="1" parent="LnD3zdVyB0GyHzaoFV1q-87">
          <mxGeometry y="108" width="160" height="30" as="geometry" />
        </mxCell>
        <mxCell id="LnD3zdVyB0GyHzaoFV1q-91" value="ViewOrder" style="swimlane;fontStyle=0;align=center;verticalAlign=top;childLayout=stackLayout;horizontal=1;startSize=26;horizontalStack=0;resizeParent=1;resizeLast=0;collapsible=1;marginBottom=0;rounded=0;shadow=0;strokeWidth=1;" vertex="1" parent="1">
          <mxGeometry x="-210" y="1570" width="190" height="168" as="geometry">
            <mxRectangle x="230" y="140" width="160" height="26" as="alternateBounds" />
          </mxGeometry>
        </mxCell>
        <mxCell id="LnD3zdVyB0GyHzaoFV1q-92" value="-productTable: JTable &#xa;-addButton: JButton &#xa;-deleteButton: JButton&#xa; -saveButton: JButton" style="text;align=left;verticalAlign=top;spacingLeft=4;spacingRight=4;overflow=hidden;rotatable=0;points=[[0,0.5],[1,0.5]];portConstraint=eastwest;" vertex="1" parent="LnD3zdVyB0GyHzaoFV1q-91">
          <mxGeometry y="26" width="190" height="64" as="geometry" />
        </mxCell>
        <mxCell id="LnD3zdVyB0GyHzaoFV1q-93" value="" style="line;strokeWidth=1;fillColor=none;align=left;verticalAlign=middle;spacingTop=-1;spacingLeft=3;spacingRight=3;rotatable=0;labelPosition=right;points=[];portConstraint=eastwest;strokeColor=inherit;" vertex="1" parent="LnD3zdVyB0GyHzaoFV1q-91">
          <mxGeometry y="90" width="190" height="8" as="geometry" />
        </mxCell>
        <mxCell id="LnD3zdVyB0GyHzaoFV1q-94" value="&lt;div style=&quot;&quot;&gt;+getAddButton() :JButton&lt;/div&gt;&lt;div style=&quot;&quot;&gt;&amp;nbsp;+getDeleteButton(): JButton&lt;/div&gt;&lt;div style=&quot;&quot;&gt;&amp;nbsp;+getSaveButton() :JButton&lt;/div&gt;&lt;div style=&quot;&quot;&gt;&amp;nbsp;+getProductTable() :JTable&lt;/div&gt;" style="text;html=1;align=left;verticalAlign=middle;resizable=0;points=[];autosize=1;strokeColor=none;fillColor=none;" vertex="1" parent="LnD3zdVyB0GyHzaoFV1q-91">
          <mxGeometry y="98" width="190" height="70" as="geometry" />
        </mxCell>
        <mxCell id="LnD3zdVyB0GyHzaoFV1q-96" value="" style="endArrow=diamondThin;endFill=0;endSize=24;html=1;rounded=0;entryX=0;entryY=0.5;entryDx=0;entryDy=0;exitX=0.242;exitY=1.052;exitDx=0;exitDy=0;exitPerimeter=0;" edge="1" parent="1" source="LnD3zdVyB0GyHzaoFV1q-28" target="LnD3zdVyB0GyHzaoFV1q-71">
          <mxGeometry width="160" relative="1" as="geometry">
            <mxPoint x="250" y="1420" as="sourcePoint" />
            <mxPoint x="410" y="1420" as="targetPoint" />
          </mxGeometry>
        </mxCell>
        <mxCell id="LnD3zdVyB0GyHzaoFV1q-97" value="" style="endArrow=diamondThin;endFill=0;endSize=24;html=1;rounded=0;entryX=0.5;entryY=1;entryDx=0;entryDy=0;exitX=0.75;exitY=0;exitDx=0;exitDy=0;" edge="1" parent="1" source="LnD3zdVyB0GyHzaoFV1q-25" target="LnD3zdVyB0GyHzaoFV1q-19">
          <mxGeometry width="160" relative="1" as="geometry">
            <mxPoint x="60.00000000000023" y="1305.95" as="sourcePoint" />
            <mxPoint x="84.65999999999985" y="1199.9959999999999" as="targetPoint" />
          </mxGeometry>
        </mxCell>
        <mxCell id="LnD3zdVyB0GyHzaoFV1q-98" value="" style="endArrow=diamondThin;endFill=0;endSize=24;html=1;rounded=0;entryX=0;entryY=0.5;entryDx=0;entryDy=0;exitX=0.75;exitY=0;exitDx=0;exitDy=0;" edge="1" parent="1" source="LnD3zdVyB0GyHzaoFV1q-53" target="LnD3zdVyB0GyHzaoFV1q-80">
          <mxGeometry width="160" relative="1" as="geometry">
            <mxPoint x="320" y="1470" as="sourcePoint" />
            <mxPoint x="400" y="1561" as="targetPoint" />
            <Array as="points" />
          </mxGeometry>
        </mxCell>
        <mxCell id="LnD3zdVyB0GyHzaoFV1q-99" value="" style="endArrow=diamondThin;endFill=0;endSize=24;html=1;rounded=0;entryX=0.5;entryY=1;entryDx=0;entryDy=0;exitX=0.75;exitY=0;exitDx=0;exitDy=0;" edge="1" parent="1" source="LnD3zdVyB0GyHzaoFV1q-79" target="LnD3zdVyB0GyHzaoFV1q-21">
          <mxGeometry width="160" relative="1" as="geometry">
            <mxPoint x="380" y="2100" as="sourcePoint" />
            <mxPoint x="270" y="2286" as="targetPoint" />
          </mxGeometry>
        </mxCell>
        <mxCell id="LnD3zdVyB0GyHzaoFV1q-100" value="" style="endArrow=diamondThin;endFill=0;endSize=24;html=1;rounded=0;entryX=0.198;entryY=0.004;entryDx=0;entryDy=0;exitX=0.575;exitY=1.029;exitDx=0;exitDy=0;entryPerimeter=0;exitPerimeter=0;" edge="1" parent="1" source="LnD3zdVyB0GyHzaoFV1q-52" target="LnD3zdVyB0GyHzaoFV1q-87">
          <mxGeometry width="160" relative="1" as="geometry">
            <mxPoint x="610" y="800" as="sourcePoint" />
            <mxPoint x="500" y="986" as="targetPoint" />
          </mxGeometry>
        </mxCell>
        <mxCell id="LnD3zdVyB0GyHzaoFV1q-101" value="" style="endArrow=diamondThin;endFill=0;endSize=24;html=1;rounded=0;exitX=0.5;exitY=1;exitDx=0;exitDy=0;entryX=0.25;entryY=0;entryDx=0;entryDy=0;" edge="1" parent="1" source="LnD3zdVyB0GyHzaoFV1q-17" target="LnD3zdVyB0GyHzaoFV1q-49">
          <mxGeometry width="160" relative="1" as="geometry">
            <mxPoint x="420" y="750" as="sourcePoint" />
            <mxPoint x="350" y="680" as="targetPoint" />
          </mxGeometry>
        </mxCell>
        <mxCell id="LnD3zdVyB0GyHzaoFV1q-103" value="" style="endArrow=diamondThin;endFill=1;endSize=24;html=1;rounded=0;exitX=0.503;exitY=1.074;exitDx=0;exitDy=0;entryX=0.5;entryY=0;entryDx=0;entryDy=0;exitPerimeter=0;" edge="1" parent="1" source="LnD3zdVyB0GyHzaoFV1q-69" target="LnD3zdVyB0GyHzaoFV1q-57">
          <mxGeometry width="160" relative="1" as="geometry">
            <mxPoint x="190" y="1790" as="sourcePoint" />
            <mxPoint x="230" y="1740" as="targetPoint" />
          </mxGeometry>
        </mxCell>
        <mxCell id="LnD3zdVyB0GyHzaoFV1q-105" value="" style="endArrow=diamondThin;endFill=1;endSize=24;html=1;rounded=0;exitX=0;exitY=0.5;exitDx=0;exitDy=0;entryX=1;entryY=0.5;entryDx=0;entryDy=0;" edge="1" parent="1" source="LnD3zdVyB0GyHzaoFV1q-76" target="LnD3zdVyB0GyHzaoFV1q-71">
          <mxGeometry width="160" relative="1" as="geometry">
            <mxPoint x="516" y="1480" as="sourcePoint" />
            <mxPoint x="-560" y="1300" as="targetPoint" />
          </mxGeometry>
        </mxCell>
        <mxCell id="LnD3zdVyB0GyHzaoFV1q-107" value="" style="endArrow=diamondThin;endFill=1;endSize=24;html=1;rounded=0;entryX=0.545;entryY=1.059;entryDx=0;entryDy=0;exitX=0.25;exitY=0;exitDx=0;exitDy=0;entryPerimeter=0;" edge="1" parent="1" source="LnD3zdVyB0GyHzaoFV1q-91" target="LnD3zdVyB0GyHzaoFV1q-82">
          <mxGeometry width="160" relative="1" as="geometry">
            <mxPoint x="-40" y="1880" as="sourcePoint" />
            <mxPoint x="-100" y="2078" as="targetPoint" />
          </mxGeometry>
        </mxCell>
        <mxCell id="LnD3zdVyB0GyHzaoFV1q-108" value="" style="endArrow=diamondThin;endFill=1;endSize=24;html=1;rounded=0;exitX=0;exitY=0.5;exitDx=0;exitDy=0;entryX=1;entryY=0.5;entryDx=0;entryDy=0;" edge="1" parent="1" source="LnD3zdVyB0GyHzaoFV1q-84" target="LnD3zdVyB0GyHzaoFV1q-88">
          <mxGeometry width="160" relative="1" as="geometry">
            <mxPoint x="696" y="800" as="sourcePoint" />
            <mxPoint x="680" y="888" as="targetPoint" />
          </mxGeometry>
        </mxCell>
        <mxCell id="LnD3zdVyB0GyHzaoFV1q-110" style="edgeStyle=orthogonalEdgeStyle;rounded=0;orthogonalLoop=1;jettySize=auto;html=1;exitX=0.25;exitY=1;exitDx=0;exitDy=0;entryX=-0.005;entryY=0.098;entryDx=0;entryDy=0;entryPerimeter=0;" edge="1" parent="1" source="LnD3zdVyB0GyHzaoFV1q-11" target="LnD3zdVyB0GyHzaoFV1q-42">
          <mxGeometry relative="1" as="geometry" />
        </mxCell>
        <mxCell id="LnD3zdVyB0GyHzaoFV1q-112" value="Extends" style="endArrow=block;endSize=16;endFill=0;html=1;rounded=0;entryX=0.806;entryY=1.021;entryDx=0;entryDy=0;entryPerimeter=0;exitX=0.75;exitY=0;exitDx=0;exitDy=0;" edge="1" parent="1" source="LnD3zdVyB0GyHzaoFV1q-17" target="LnD3zdVyB0GyHzaoFV1q-48">
          <mxGeometry width="160" relative="1" as="geometry">
            <mxPoint x="760" y="340" as="sourcePoint" />
            <mxPoint x="810" y="320" as="targetPoint" />
          </mxGeometry>
        </mxCell>
        <mxCell id="LnD3zdVyB0GyHzaoFV1q-113" value="Extends" style="endArrow=block;endSize=16;endFill=0;html=1;rounded=0;entryX=0.459;entryY=0.965;entryDx=0;entryDy=0;entryPerimeter=0;exitX=0.75;exitY=0;exitDx=0;exitDy=0;" edge="1" parent="1" source="LnD3zdVyB0GyHzaoFV1q-21" target="LnD3zdVyB0GyHzaoFV1q-48">
          <mxGeometry width="160" relative="1" as="geometry">
            <mxPoint x="640" y="270" as="sourcePoint" />
            <mxPoint x="800" y="270" as="targetPoint" />
          </mxGeometry>
        </mxCell>
        <mxCell id="LnD3zdVyB0GyHzaoFV1q-114" value="Extends" style="endArrow=block;endSize=16;endFill=0;html=1;rounded=0;entryX=0.05;entryY=0.961;entryDx=0;entryDy=0;entryPerimeter=0;exitX=0.25;exitY=0;exitDx=0;exitDy=0;" edge="1" parent="1" source="LnD3zdVyB0GyHzaoFV1q-19" target="LnD3zdVyB0GyHzaoFV1q-48">
          <mxGeometry width="160" relative="1" as="geometry">
            <mxPoint x="500" y="303.40999999999997" as="sourcePoint" />
            <mxPoint x="660" y="303.40999999999997" as="targetPoint" />
          </mxGeometry>
        </mxCell>
        <mxCell id="LnD3zdVyB0GyHzaoFV1q-115" value="Use" style="endArrow=open;endSize=12;dashed=1;html=1;rounded=0;exitX=1;exitY=0;exitDx=0;exitDy=0;entryX=0.5;entryY=1;entryDx=0;entryDy=0;" edge="1" parent="1" source="LnD3zdVyB0GyHzaoFV1q-17" target="LnD3zdVyB0GyHzaoFV1q-13">
          <mxGeometry width="160" relative="1" as="geometry">
            <mxPoint x="-350" y="140" as="sourcePoint" />
            <mxPoint x="-190" y="140" as="targetPoint" />
          </mxGeometry>
        </mxCell>
        <mxCell id="LnD3zdVyB0GyHzaoFV1q-116" value="Use" style="endArrow=open;endSize=12;dashed=1;html=1;rounded=0;exitX=1;exitY=0.5;exitDx=0;exitDy=0;entryX=0.25;entryY=0;entryDx=0;entryDy=0;" edge="1" parent="1" source="LnD3zdVyB0GyHzaoFV1q-21" target="LnD3zdVyB0GyHzaoFV1q-11">
          <mxGeometry width="160" relative="1" as="geometry">
            <mxPoint x="-30" y="1529" as="sourcePoint" />
            <mxPoint x="-58.58829273897059" y="1030" as="targetPoint" />
          </mxGeometry>
        </mxCell>
        <mxCell id="LnD3zdVyB0GyHzaoFV1q-117" value="Use" style="endArrow=open;endSize=12;dashed=1;html=1;rounded=0;exitX=1;exitY=0.25;exitDx=0;exitDy=0;entryX=0;entryY=0.5;entryDx=0;entryDy=0;" edge="1" parent="1" source="LnD3zdVyB0GyHzaoFV1q-19" target="LnD3zdVyB0GyHzaoFV1q-2">
          <mxGeometry width="160" relative="1" as="geometry">
            <mxPoint x="-700" y="939" as="sourcePoint" />
            <mxPoint x="-810" y="770" as="targetPoint" />
          </mxGeometry>
        </mxCell>
        <mxCell id="LnD3zdVyB0GyHzaoFV1q-118" value="Use" style="endArrow=open;endSize=12;dashed=1;html=1;rounded=0;exitX=0.379;exitY=-0.019;exitDx=0;exitDy=0;entryX=1;entryY=0.5;entryDx=0;entryDy=0;exitPerimeter=0;" edge="1" parent="1" source="LnD3zdVyB0GyHzaoFV1q-23" target="LnD3zdVyB0GyHzaoFV1q-42">
          <mxGeometry x="-0.0022" width="160" relative="1" as="geometry">
            <mxPoint x="450" y="1599" as="sourcePoint" />
            <mxPoint x="340" y="1430" as="targetPoint" />
            <mxPoint as="offset" />
          </mxGeometry>
        </mxCell>
        <mxCell id="LnD3zdVyB0GyHzaoFV1q-119" value="Use" style="endArrow=open;endSize=12;dashed=1;html=1;rounded=0;exitX=0;exitY=0.5;exitDx=0;exitDy=0;entryX=1.024;entryY=-0.053;entryDx=0;entryDy=0;entryPerimeter=0;" edge="1" parent="1" source="LnD3zdVyB0GyHzaoFV1q-67" target="LnD3zdVyB0GyHzaoFV1q-94">
          <mxGeometry x="-0.0022" width="160" relative="1" as="geometry">
            <mxPoint x="70" y="1740" as="sourcePoint" />
            <mxPoint x="-60" y="1800" as="targetPoint" />
            <mxPoint as="offset" />
          </mxGeometry>
        </mxCell>
        <mxCell id="LnD3zdVyB0GyHzaoFV1q-120" value="Use" style="endArrow=open;endSize=12;dashed=1;html=1;rounded=0;exitX=-0.016;exitY=0.343;exitDx=0;exitDy=0;entryX=0.5;entryY=0;entryDx=0;entryDy=0;exitPerimeter=0;" edge="1" parent="1" source="LnD3zdVyB0GyHzaoFV1q-86" target="LnD3zdVyB0GyHzaoFV1q-91">
          <mxGeometry x="-0.0022" width="160" relative="1" as="geometry">
            <mxPoint x="525" y="1574" as="sourcePoint" />
            <mxPoint x="370" y="1490" as="targetPoint" />
            <mxPoint as="offset" />
          </mxGeometry>
        </mxCell>
        <mxCell id="LnD3zdVyB0GyHzaoFV1q-121" value="Use" style="endArrow=open;endSize=12;dashed=1;html=1;rounded=0;entryX=0;entryY=0.5;entryDx=0;entryDy=0;exitX=-0.023;exitY=0.286;exitDx=0;exitDy=0;exitPerimeter=0;" edge="1" parent="1" source="LnD3zdVyB0GyHzaoFV1q-78" target="LnD3zdVyB0GyHzaoFV1q-92">
          <mxGeometry x="-0.0022" width="160" relative="1" as="geometry">
            <mxPoint x="-890" y="1250" as="sourcePoint" />
            <mxPoint x="-720" y="1700" as="targetPoint" />
            <mxPoint as="offset" />
            <Array as="points">
              <mxPoint x="-910" y="1250" />
              <mxPoint x="-890" y="1680" />
            </Array>
          </mxGeometry>
        </mxCell>
      </root>
    </mxGraphModel>
  </diagram>
</mxfile>
